<svg width="478" height="467" viewBox="0 0 478 467" fill="none" xmlns="http://www.w3.org/2000/svg">
<circle cx="184" cy="93" r="93" fill="white"/>
<path d="M238 397C220 292 297.219 252 298 251C271.5 227 232.8 213 184 213C135.2 213 88.3991 232.386 53.8924 266.892C19.3857 301.399 7.36857e-06 348.2 0 397L184 397H238Z" fill="white"/>
<path fill-rule="evenodd" clip-rule="evenodd" d="M478 359.5C478 418.871 429.871 467 370.5 467C311.129 467 263 418.871 263 359.5C263 300.129 311.129 252 370.5 252C429.871 252 478 300.129 478 359.5ZM389 286V379H352V286H389ZM389 434V397H352V434H389Z" fill="#CE881F"/>
</svg>
